#!OML:ASF H:\LiuWeirdWalks\Patient Classification 1\Patient 1\Session 1\male.ASF
:FULLY-SPECIFIED
:DEGREES
1104
root 1.86146 18.1907 23.9705 0.957729 6.75759 3.81944
lowerback 9.55464 -2.24238 2.6651
upperback 2.45847 -2.46935 7.00059
thorax -2.59344 -1.23363 6.12044
lowerneck -21.3745 1.43087 4.818
upperneck 30.7832 5.21288 -14.1172
head 14.8505 0.84661 -5.76189
rclavicle -2.14687e-014 8.90555e-014
rhumerus -22.2421 -30.6046 -7.79626
rradius 33.8933
rwrist -4.53717
rhand -23.722 -7.56031
rfingers 7.12502
rthumb 2.74581 -37.5224
lclavicle -2.14687e-014 8.90555e-014
lhumerus -20.8468 4.91918 16.5582
lradius 33.3528
lwrist 29.7286
lhand -30.2216 -0.0319914
lfingers 7.12502
lthumb -3.53147 29.9185
rfemur -12.8062 6.45865 13.8324
rtibia 30.6722
rfoot -7.36573 -25.5149
rtoes -0.118814
lfemur -7.85577 1.30416 -16.1221
ltibia 57.0137
lfoot 8.84583 -3.54116
ltoes -10.1633
1105
root 1.85968 18.1894 24.0397 0.887345 6.6992 3.78876
lowerback 9.62059 -2.23936 2.89308
upperback 2.51475 -2.43816 7.10278
thorax -2.57861 -1.21893 6.09856
lowerneck -21.3834 1.42095 4.79983
upperneck 30.7086 5.25623 -14.2881
head 14.8333 0.841272 -5.82009
rclavicle -2.14687e-014 3.18055e-015
rhumerus -22.0947 -30.5308 -7.98402
rradius 33.955
rwrist -4.66835
rhand -23.7714 -7.67491
rfingers 7.12502
rthumb 2.69816 -37.6376
lclavicle -2.14687e-014 3.18055e-015
lhumerus -20.8334 5.0162 16.5658
lradius 33.3701
lwrist 29.7545
lhand -30.2521 0.067417
lfingers 7.12502
lthumb -3.56095 30.0174
rfemur -12.4641 6.5041 13.9449
rtibia 30.6246
rfoot -7.56132 -25.5475
rtoes -0.185315
lfemur -8.49345 1.49746 -16.1945
ltibia 57.5483
lfoot 7.50376 -3.37954
ltoes -10.6869
1106
root 1.86002 18.1876 24.1078 0.835156 6.65447 3.7814
lowerback 9.68009 -2.23531 3.1216
upperback 2.55277 -2.4047 7.19641
thorax -2.57973 -1.20277 6.06731
lowerneck -21.3639 1.39469 4.75306
upperneck 30.6324 5.28196 -14.4473
head 14.8054 0.827515 -5.87025
rclavicle -4.77083e-015 -1.59028e-014
rhumerus -21.9882 -30.4025 -8.13524
rradius 34.0516
rwrist -4.8423
rhand -23.8391 -7.85761
rfingers 7.12502
rthumb 2.63274 -37.8211
lclavicle -4.77083e-015 -1.59028e-014
lhumerus -20.8289 5.10683 16.5981
lradius 33.3986
lwrist 29.7686
lhand -30.2852 0.151457
lfingers 7.12502
lthumb -3.59288 30.1009
rfemur -12.1378 6.49134 14.0169
rtibia 30.5825
rfoot -7.77094 -25.5406
rtoes -0.258634
lfemur -9.12852 1.65074 -16.3227
ltibia 57.9675
lfoot 6.27603 -3.2299
ltoes -11.1631
1107
root 1.86248 18.1857 24.1753 0.806888 6.62243 3.8108
lowerback 9.71559 -2.22935 3.34053
upperback 2.58374 -2.37137 7.27413
thorax -2.57509 -1.18657 6.02341
lowerneck -21.3363 1.35827 4.69494
upperneck 30.5586 5.2948 -14.6002
head 14.7745 0.808049 -5.91785
rclavicle -2.8625e-014 5.08889e-014
rhumerus -21.9311 -30.296 -8.23782
rradius 34.159
rwrist -4.89634
rhand -23.8372 -7.97444
rfingers 7.12502
rthumb 2.63455 -37.9379
lclavicle -2.8625e-014 5.08889e-014
lhumerus -20.8131 5.20922 16.6509
lradius 33.4415
lwrist 29.7918
lhand -30.3197 0.257973
lfingers 7.12502
lthumb -3.62615 30.2069
rfemur -11.8334 6.4269 14.0332
rtibia 30.5507
rfoot -7.98986 -25.5
rtoes -0.337132
lfemur -9.76189 1.76053 -16.5206
ltibia 58.2722
lfoot 5.16069 -3.08042
ltoes -11.6785
1108
root 1.86596 18.1836 24.241 0.808796 6.58229 3.86284
lowerback 9.73853 -2.23707 3.49866
upperback 2.61999 -2.36351 7.36124
thorax -2.55289 -1.18313 6.02641
lowerneck -21.3244 1.34643 4.65387
upperneck 30.4655 5.34073 -14.7704
head 14.7446 0.802382 -5.96892
rclavicle 1.59028e-015 -6.36111e-014
rhumerus -21.7715 -30.2519 -8.38313
rradius 34.2213
rwrist -4.87497
rhand -23.8186 -8.03043
rfingers 7.12502
rthumb 2.65259 -37.9937
lclavicle 1.59028e-015 -6.36111e-014
lhumerus -20.8666 5.34102 16.6886
lradius 33.4623
lwrist 29.7995
lhand -30.3311 0.331443
lfingers 7.12502
lthumb -3.63717 30.2802
rfemur -11.5749 6.35799 14.0135
rtibia 30.5333
rfoot -8.20994 -25.4494
rtoes -0.402933
lfemur -10.4073 1.84449 -16.7635
ltibia 58.4709
lfoot 4.13893 -2.91675
ltoes -12.2117
1109
root 1.86973 18.1812 24.3055 0.824747 6.52597 3.91987
lowerback 9.76837 -2.24561 3.62074
upperback 2.65256 -2.35923 7.45795
thorax -2.53616 -1.1814 6.0613
lowerneck -21.324 1.34546 4.62199
upperneck 30.3794 5.40325 -14.9507
head 14.724 0.803241 -6.02399
rclavicle -4.29375e-014 6.36111e-014
rhumerus -21.5779 -30.2307 -8.52838
rradius 34.2649
rwrist -4.77833
rhand -23.7657 -7.99868
rfingers 7.12502
rthumb 2.70363 -37.9613
lclavicle -4.29375e-014 6.36111e-014
lhumerus -20.9555 5.496 16.7248
lradius 33.472
lwrist 29.7519
lhand -30.3038 0.388674
lfingers 7.12502
lthumb -3.6108 30.3378
rfemur -11.3468 6.31304 13.9849
rtibia 30.5295
rfoot -8.42508 -25.4073
rtoes -0.48448
lfemur -11.0517 1.91923 -17.0221
ltibia 58.5715
lfoot 3.1981 -2.72482
ltoes -12.7525
1110
root 1.87327 18.1785 24.3691 0.84876 6.44247 3.977
lowerback 9.83639 -2.27983 3.66943
upperback 2.74311 -2.39733 7.57662
thorax -2.47237 -1.20133 6.16676
lowerneck -21.5968 1.41942 4.64093
upperneck 30.3485 5.57227 -15.1553
head 14.8102 0.842241 -6.09135
rclavicle -5.08889e-014 -2.54444e-014
rhumerus -21.2024 -30.3604 -8.80889
rradius 34.3021
rwrist -4.62444
rhand -23.7082 -7.90956
rfingers 7.12502
rthumb 2.75916 -37.8715
lclavicle -5.08889e-014 -2.54444e-014
lhumerus -21.144 5.68055 16.7239
lradius 33.4684
lwrist 29.8163
lhand -30.2989 0.431256
lfingers 7.12502
lthumb -3.60614 30.3805
rfemur -11.145 6.3197 13.9578
rtibia 30.5382
rfoot -8.63564 -25.3898
rtoes -0.560429
lfemur -11.685 2.00816 -17.2829
ltibia 58.5814
lfoot 2.30744 -2.48733
ltoes -13.3467
1111
root 1.87715 18.1756 24.4323 0.870894 6.34726 4.01112
lowerback 9.9069 -2.31618 3.72801
upperback 2.83119 -2.43688 7.69818
thorax -2.41248 -1.22204 6.27034
lowerneck -21.8613 1.49592 4.65883
upperneck 30.3237 5.74002 -15.3412
head 14.8969 0.882944 -6.15096
rclavicle -6.36111e-014 2.8625e-014
rhumerus -20.8054 -30.4857 -9.09918
rradius 34.3029
rwrist -4.49221
rhand -23.6636 -7.74235
rfingers 7.12502
rthumb 2.80221 -37.7037
lclavicle -6.36111e-014 2.8625e-014
lhumerus -21.3421 5.96297 16.7052
lradius 33.4479
lwrist 29.7792
lhand -30.2678 0.471108
lfingers 7.12502
lthumb -3.57609 30.4209
rfemur -10.9537 6.35149 13.9561
rtibia 30.5558
rfoot -8.84526 -25.3874
rtoes -0.637599
lfemur -12.2995 2.10788 -17.5194
ltibia 58.506
lfoot 1.47451 -2.21606
ltoes -13.9398
1112
root 1.88184 18.1723 24.4953 0.891445 6.24617 4.0339
lowerback 9.98463 -2.36267 3.78405
upperback 2.92544 -2.4901 7.82004
thorax -2.34864 -1.2497 6.37774
lowerneck -22.157 1.60106 4.72607
upperneck 30.3 5.93916 -15.5491
head 14.9995 0.938843 -6.22473
rclavicle 1.11319e-014 2.8625e-014
rhumerus -20.358 -30.6148 -9.42508
rradius 34.2724
rwrist -4.35755
rhand -23.6208 -7.58548
rfingers 7.12502
rthumb 2.8436 -37.5463
lclavicle 1.11319e-014 2.8625e-014
lhumerus -21.5485 6.29545 16.6628
lradius 33.3958
lwrist 29.7481
lhand -30.242 0.485845
lfingers 7.12502
lthumb -3.55119 30.436
rfemur -10.7654 6.39472 13.9649
rtibia 30.5775
rfoot -9.05318 -25.3936
rtoes -0.719616
lfemur -12.8935 2.21656 -17.7457
ltibia 58.3504
lfoot 0.682819 -1.90221
ltoes -14.5247
1113
root 1.88702 18.1687 24.5583 0.909228 6.1372 4.05922
lowerback 10.0548 -2.39323 3.86196
upperback 3.0012 -2.51971 7.92157
thorax -2.30372 -1.26533 6.44832
lowerneck -22.3941 1.68169 4.77753
upperneck 30.3107 6.10006 -15.7202
head 15.0969 0.982643 -6.28809
rclavicle 3.89618e-014 -7.95139e-014
rhumerus -19.9894 -30.6505 -9.71749
rradius 34.2681
rwrist -4.39176
rhand -23.662 -7.59377
rfingers 7.12502
rthumb 2.80379 -37.5551
lclavicle 3.89618e-014 -7.95139e-014
lhumerus -21.6973 6.65995 16.6231
lradius 33.3398
lwrist 29.6672
lhand -30.2143 0.499241
lfingers 7.12502
lthumb -3.52441 30.4499
rfemur -10.575 6.45661 13.9708
rtibia 30.5991
rfoot -9.26254 -25.4126
rtoes -0.791293
lfemur -13.4626 2.33575 -17.9755
ltibia 58.1142
lfoot -0.0722014 -1.54519
ltoes -15.0409
1114
root 1.89081 18.1646 24.6205 0.921547 5.99323 4.03617
lowerback 10.1308 -2.38098 4.00813
upperback 3.03273 -2.48137 8.01224
thorax -2.31745 -1.24638 6.46224
lowerneck -22.4678 1.71749 4.82462
upperneck 30.2881 6.1858 -15.8745
head 15.1285 1.00265 -6.35023
rclavicle 2.46493e-014 -9.54166e-014
rhumerus -19.8009 -30.5681 -9.89209
rradius 34.2853
rwrist -4.51122
rhand -23.7287 -7.67446
rfingers 7.12502
rthumb 2.73934 -37.6366
lclavicle 2.46493e-014 -9.54166e-014
lhumerus -21.7564 6.9805 16.6095
lradius 33.3008
lwrist 29.5417
lhand -30.1829 0.519167
lfingers 7.12502
lthumb -3.49404 30.4703
rfemur -10.3957 6.61285 14.0447
rtibia 30.621
rfoot -9.45239 -25.492
rtoes -0.835397
lfemur -14.0241 2.49335 -18.1358
ltibia 57.807
lfoot -0.785335 -1.17446
ltoes -15.4706
1115
root 1.89455 18.1604 24.6836 0.926882 5.8337 4.02305
lowerback 10.1827 -2.3335 4.17734
upperback 3.03639 -2.3943 8.0777
thorax -2.35321 -1.20277 6.42944
lowerneck -22.4052 1.70126 4.83686
upperneck 30.26 6.19514 -15.9946
head 15.1106 0.995543 -6.40093
rclavicle -1.66979e-014 2.54444e-014
rhumerus -19.7903 -30.3962 -9.9473
rradius 34.3331
rwrist -4.64835
rhand -23.7839 -7.78888
rfingers 7.12502
rthumb 2.68604 -37.7517
lclavicle -1.66979e-014 2.54444e-014
lhumerus -21.7444 7.25719 16.6278
lradius 33.2919
lwrist 29.4088
lhand -30.1639 0.525078
lfingers 7.12502
lthumb -3.47573 30.4765
rfemur -10.2059 6.80749 14.1135
rtibia 30.6473
rfoot -9.65096 -25.5976
rtoes -0.878252
lfemur -14.5524 2.66175 -18.3013
ltibia 57.4206
lfoot -1.46663 -0.78338
ltoes -15.8834
1116
root 1.8984 18.1562 24.745 0.947494 5.6701 4.01594
lowerback 10.2312 -2.26991 4.35459
upperback 3.02038 -2.28375 8.12954
thorax -2.41024 -1.14732 6.37481
lowerneck -22.2749 1.66092 4.82381
upperneck 30.2145 6.16634 -16.0869
head 15.0604 0.975601 -6.43808
rclavicle -2.14687e-014 -5.08889e-014
rhumerus -19.8643 -30.1742 -9.94748
rradius 34.3955
rwrist -4.81644
rhand -23.8382 -7.93072
rfingers 7.12502
rthumb 2.63362 -37.8942
lclavicle -2.14687e-014 -5.08889e-014
lhumerus -21.6993 7.44183 16.659
lradius 33.2846
lwrist 29.2776
lhand -30.1421 0.526593
lfingers 7.12502
lthumb -3.45471 30.4783
rfemur -10.0443 7.02014 14.1745
rtibia 30.6851
rfoot -9.85105 -25.7189
rtoes -0.899932
lfemur -15.0889 2.81992 -18.4706
ltibia 56.9606
lfoot -2.1093 -0.371853
ltoes -16.2528
